# xmcd
#
# Track frame offsets: 
#        150
#        19217
#        40562
#        55960
#        72140
#        84472
#        91940
#        104240
#        120057
#        132542
#        147935
#        163772
#        180020
#        198657
#        212977
#        227917
#        239027
#        255127
#        275977
#        294550
#
# Disc length: 4126 seconds
#
# Revision: 6
# Processed by: cddbd v1.5.2PL0 Copyright (c) Steve Scherf et al.
# Submitted via: ExactAudioCopy v1.0b4
#
DISCID=27101c14
DTITLE=Roberta Miranda - Roberta Miranda - Ao Vivo (2000)
DYEAR=2000
DGENRE=Other
TTITLE0=01. Estrada Da Vida (Abertura Instrumental)
TTITLE1=02. Um Dia De Domingo
TTITLE2=03. Cadê Você
TTITLE3=04. Outra Vez
TTITLE4=05. Tudo Acabado
TTITLE5=06. Dói
TTITLE6=07. Marcas
TTITLE7=08. Criamos Raízes
TTITLE8=09. Garçon
TTITLE9=10. Amanhã (Part. Esp. Reginaldo Rossi)
TTITLE10=11. Meu Dengo (Part. Esp. Rionegro and Solimões)
TTITLE11=12. A Mulher Em Mim
TTITLE12=13. Majestade, O Sabiá (Part. Esp. Chitãozinho and Xororó)
TTITLE13=14. De Igual Pra Igual
TTITLE14=15. Duas Taças
TTITLE15=16. São Tantas Coisas
TTITLE16=17. Sol Da Minha Vida
TTITLE17=18. Eu Te amo, Te Amo, Te Amo
TTITLE18=19. Tinha Que Acontecer
TTITLE19=20. Vá Com Deus
EXTD=
EXTT0=
EXTT1=
EXTT2=
EXTT3=
EXTT4=
EXTT5=
EXTT6=
EXTT7=
EXTT8=
EXTT9=
EXTT10=
EXTT11=
EXTT12=
EXTT13=
EXTT14=
EXTT15=
EXTT16=
EXTT17=
EXTT18=
EXTT19=
PLAYORDER=
